<svg width="18" height="19" viewBox="0 0 18 19" fill="none" xmlns="http://www.w3.org/2000/svg">
<path d="M9 17.75C10.6317 17.75 12.2267 17.2662 13.5835 16.3596C14.9402 15.4531 15.9976 14.1646 16.622 12.6571C17.2464 11.1497 17.4098 9.49085 17.0915 7.89051C16.7732 6.29017 15.9874 4.82016 14.8336 3.66637C13.6798 2.51259 12.2098 1.72685 10.6095 1.40853C9.00915 1.0902 7.35035 1.25357 5.84286 1.878C4.33537 2.50242 3.0469 3.55984 2.14038 4.91655C1.23385 6.27325 0.75 7.86831 0.75 9.5C0.75 10.82 1.05983 12.0667 1.61167 13.1731C2.02692 14.0082 1.44942 15.1348 1.22942 15.957C1.18068 16.1389 1.18067 16.3303 1.22939 16.5122C1.27812 16.6941 1.37385 16.8599 1.50698 16.993C1.64011 17.1262 1.80594 17.2219 1.9878 17.2706C2.16966 17.3193 2.36114 17.3193 2.543 17.2706C3.36525 17.0506 4.49183 16.4731 5.32692 16.8893C6.46836 17.456 7.72559 17.7506 9 17.75Z" stroke="white" stroke-width="1.5" stroke-linecap="round" stroke-linejoin="round"/>
</svg>
