<svg width="20" height="20" viewBox="0 0 20 20" fill="none" xmlns="http://www.w3.org/2000/svg">
<path d="M18.9009 6.9842C20.0467 5.83837 19.5242 4.50004 18.9009 3.8492L16.1509 1.0992C14.9959 -0.04663 13.6667 0.47587 13.0159 1.0992L11.4575 2.6667H9.08337C7.3417 2.6667 6.33337 3.58337 5.82004 4.63754L1.75004 8.70754V12.3742L1.0992 13.0159C-0.04663 14.1709 0.47587 15.5 1.0992 16.1509L3.8492 18.9009C4.3442 19.3959 4.87587 19.5792 5.38004 19.5792C6.03087 19.5792 6.6267 19.2584 6.9842 18.9009L9.4592 16.4167H12.75C14.3084 16.4167 15.0967 15.445 15.3809 14.4917C16.4167 14.2167 16.985 13.4284 17.2142 12.6584C18.635 12.2917 19.1667 10.9442 19.1667 10V7.25004H18.6259L18.9009 6.9842ZM17.3334 10C17.3334 10.4125 17.1592 10.9167 16.4167 10.9167H15.5V11.8334C15.5 12.2459 15.3259 12.75 14.5834 12.75H13.6667V13.6667C13.6667 14.0792 13.4925 14.5834 12.75 14.5834H8.70754L5.70087 17.59C5.4167 17.8559 5.2517 17.7 5.15087 17.5992L2.41004 14.8675C2.1442 14.5834 2.30004 14.4184 2.40087 14.3175L3.58337 13.1259V9.4592L5.4167 7.62587V9.08337C5.4167 10.1925 6.15004 11.8334 8.1667 11.8334C10.1834 11.8334 10.9167 10.1925 10.9167 9.08337H17.3334V10ZM17.5992 5.68254L16.0409 7.25004H9.08337V9.08337C9.08337 9.49587 8.9092 10 8.1667 10C7.4242 10 7.25004 9.49587 7.25004 9.08337V6.33337C7.25004 5.9117 7.40587 4.50004 9.08337 4.50004H12.2092L14.2992 2.41004C14.5834 2.1442 14.7484 2.30004 14.8492 2.40087L17.59 5.13254C17.8559 5.4167 17.7 5.5817 17.5992 5.68254Z" fill="white"/>
</svg>
