<svg width="32" height="32" viewBox="0 0 32 32" fill="none" xmlns="http://www.w3.org/2000/svg">
<path d="M7.99992 11.9999C6.93905 11.9999 5.92164 12.4213 5.17149 13.1715C4.42135 13.9216 3.99992 14.9391 3.99992 15.9999C3.99992 17.0608 4.42135 18.0782 5.17149 18.8283C5.92164 19.5785 6.93905 19.9999 7.99992 19.9999C9.06078 19.9999 10.0782 19.5785 10.8283 18.8283C11.5785 18.0782 11.9999 17.0608 11.9999 15.9999C11.9999 14.9391 11.5785 13.9216 10.8283 13.1715C10.0782 12.4213 9.06078 11.9999 7.99992 11.9999ZM1.33325 15.9999C1.33338 14.7342 1.69384 13.4946 2.37248 12.4262C3.05112 11.3578 4.01989 10.5046 5.16553 9.96649C6.31117 9.42835 7.58633 9.22747 8.84193 9.38734C10.0975 9.5472 11.2817 10.0612 12.2559 10.8693C13.2537 9.88527 14.5986 9.3335 15.9999 9.33325C17.4599 9.33325 18.7813 9.91992 19.7439 10.8693C21.0152 9.81609 22.6319 9.27204 24.2813 9.34242C25.9306 9.41281 27.4951 10.0926 28.672 11.2503C29.8489 12.4079 30.5544 13.961 30.652 15.609C30.7496 17.2569 30.2323 18.8824 29.2002 20.1709C28.1682 21.4593 26.6948 22.319 25.0653 22.5835C23.4358 22.8481 21.7661 22.4986 20.3795 21.6028C18.9928 20.7071 17.9879 19.3286 17.5591 17.7345C17.1304 16.1403 17.3083 14.4437 18.0586 12.9733C17.8086 12.6691 17.4943 12.4241 17.1384 12.2558C16.7824 12.0875 16.3936 12.0001 15.9999 11.9999C15.1733 11.9999 14.4306 12.3773 13.9413 12.9733C14.3983 13.8712 14.6459 14.8612 14.6653 15.8686C14.6848 16.876 14.4756 17.8748 14.0536 18.7897C13.6315 19.7047 13.0076 20.5121 12.2286 21.1512C11.4496 21.7904 10.5359 22.2446 9.5561 22.4798C8.57632 22.715 7.55596 22.7251 6.57173 22.5092C5.58751 22.2934 4.66501 21.8572 3.8736 21.2335C3.08218 20.6099 2.44243 19.8149 2.00243 18.9084C1.56244 18.002 1.33364 17.0075 1.33325 15.9999ZM23.9999 11.9999C23.4744 11.9992 22.954 12.1022 22.4684 12.303C21.9827 12.5037 21.5415 12.7984 21.1699 13.1699C20.7984 13.5415 20.5037 13.9827 20.303 14.4684C20.1022 14.954 19.9992 15.4744 19.9999 15.9999C19.9999 16.791 20.2345 17.5644 20.674 18.2222C21.1136 18.88 21.7383 19.3927 22.4692 19.6954C23.2001 19.9982 24.0044 20.0774 24.7803 19.9231C25.5562 19.7687 26.2689 19.3878 26.8283 18.8283C27.3878 18.2689 27.7687 17.5562 27.9231 16.7803C28.0774 16.0044 27.9982 15.2001 27.6954 14.4692C27.3927 13.7383 26.88 13.1136 26.2222 12.674C25.5644 12.2345 24.791 11.9999 23.9999 11.9999Z" fill="white"/>
</svg>
