<svg width="202" height="32" viewBox="0 0 202 32" fill="none" xmlns="http://www.w3.org/2000/svg">
<circle cx="15.7594" cy="15.7594" r="15.7594" fill="url(#paint0_linear_100_29)"/>
<path d="M31.5188 15.7594C31.5188 12.4333 30.4665 9.19248 28.5124 6.50089C26.5584 3.8093 23.8028 1.80497 20.6402 0.774854C17.4776 -0.255263 14.0702 -0.25835 10.9058 0.766036C7.74135 1.79042 4.98216 3.78975 3.02322 6.4778L15.7594 15.7594H31.5188Z" fill="#18377A"/>
<circle cx="15.7595" cy="15.7595" r="13.0053" fill="#141414"/>
<circle cx="15.7592" cy="15.7592" r="8.41523" fill="#4594D6"/>
<circle cx="15.7594" cy="15.7594" r="4.43712" fill="#18377A"/>
<rect x="21.7266" y="13.7703" width="13.4644" height="3.97811" fill="#4594D6"/>
<path d="M71.9075 3.21265V5.65308H66.2473V8.26343H71.4827V10.7029H66.2473V13.3201H71.9309V15.7595H63.3528V3.21265H71.9075Z" fill="#18377A" stroke="#4395DB" stroke-width="0.306008"/>
<path d="M53.5842 3.21265L53.6272 3.29468L56.342 8.42261L59.0579 3.29468L59.1018 3.21265H62.3538L62.2258 3.44116L57.7805 11.3191V15.7595H54.9045V11.3191L50.4602 3.44116L50.3313 3.21265H53.5842Z" fill="#18377A" stroke="#4395DB" stroke-width="0.306008"/>
<path d="M49.4065 3.21265V5.65308H43.7463V8.26343H48.9817V10.7029H43.7463V13.3201H49.4299V15.7595H40.8518V3.21265H49.4065Z" fill="#18377A" stroke="#4395DB" stroke-width="0.306008"/>
<path d="M69.7701 23.6283C69.7701 24.7099 69.5748 25.6446 69.1842 26.4325C68.7937 27.2203 68.2579 27.8278 67.5769 28.2551C66.8959 28.6824 66.1181 28.8961 65.2435 28.8961C64.3688 28.8961 63.591 28.6824 62.91 28.2551C62.229 27.8278 61.6932 27.2203 61.3027 26.4325C60.9121 25.6446 60.7168 24.7099 60.7168 23.6283C60.7168 22.5468 60.9121 21.612 61.3027 20.8242C61.6932 20.0364 62.229 19.4288 62.91 19.0015C63.591 18.5742 64.3688 18.3606 65.2435 18.3606C66.1181 18.3606 66.8959 18.5742 67.5769 19.0015C68.2579 19.4288 68.7937 20.0364 69.1842 20.8242C69.5748 21.612 69.7701 22.5468 69.7701 23.6283ZM68.5683 23.6283C68.5683 22.7404 68.4198 21.9909 68.1227 21.38C67.8289 20.7691 67.43 20.3068 66.9259 19.993C66.4252 19.6792 65.8644 19.5223 65.2435 19.5223C64.6225 19.5223 64.06 19.6792 63.556 19.993C63.0552 20.3068 62.6563 20.7691 62.3592 21.38C62.0654 21.9909 61.9186 22.7404 61.9186 23.6283C61.9186 24.5163 62.0654 25.2657 62.3592 25.8766C62.6563 26.4875 63.0552 26.9499 63.556 27.2637C64.06 27.5775 64.6225 27.7344 65.2435 27.7344C65.8644 27.7344 66.4252 27.5775 66.9259 27.2637C67.43 26.9499 67.8289 26.4875 68.1227 25.8766C68.4198 25.2657 68.5683 24.5163 68.5683 23.6283Z" fill="#4395DB"/>
<path d="M52.0981 28.7558V18.5007H55.5632C56.3644 18.5007 57.0221 18.6376 57.5361 18.9113C58.0502 19.1817 58.4308 19.5539 58.6778 20.028C58.9249 20.502 59.0484 21.0411 59.0484 21.6454C59.0484 22.2496 58.9249 22.7854 58.6778 23.2527C58.4308 23.7201 58.0519 24.0873 57.5411 24.3543C57.0304 24.6181 56.3778 24.7499 55.5833 24.7499H52.7791V23.6283H55.5432C56.0907 23.6283 56.5313 23.5482 56.8652 23.3879C57.2023 23.2277 57.446 23.0007 57.5962 22.7069C57.7498 22.4098 57.8266 22.056 57.8266 21.6454C57.8266 21.2348 57.7498 20.8759 57.5962 20.5688C57.4427 20.2617 57.1973 20.0246 56.8601 19.8577C56.523 19.6875 56.0773 19.6024 55.5232 19.6024H53.34V28.7558H52.0981ZM56.9252 24.149L59.449 28.7558H58.0068L55.5232 24.149H56.9252Z" fill="#4395DB"/>
<path d="M43.1475 28.7558V18.5007H46.6126C47.4171 18.5007 48.0747 18.6459 48.5855 18.9364C49.0995 19.2235 49.4801 19.6124 49.7271 20.1031C49.9742 20.5938 50.0977 21.1413 50.0977 21.7455C50.0977 22.3497 49.9742 22.8989 49.7271 23.3929C49.4834 23.887 49.1062 24.2809 48.5955 24.5747C48.0847 24.8651 47.4304 25.0103 46.6326 25.0103H44.1489V23.9087H46.5925C47.1433 23.9087 47.5857 23.8135 47.9195 23.6233C48.2533 23.433 48.4953 23.1759 48.6455 22.8521C48.7991 22.525 48.8759 22.1561 48.8759 21.7455C48.8759 21.3349 48.7991 20.9677 48.6455 20.6439C48.4953 20.3201 48.2516 20.0664 47.9145 19.8828C47.5773 19.6958 47.13 19.6024 46.5725 19.6024H44.3893V28.7558H43.1475Z" fill="#4395DB"/>
<defs>
<linearGradient id="paint0_linear_100_29" x1="17.4425" y1="26.0107" x2="24.9397" y2="28.1528" gradientUnits="userSpaceOnUse">
<stop stop-color="#153975"/>
<stop offset="1" stop-color="#4594D9"/>
</linearGradient>
</defs>
</svg>
