<svg width="202" height="32" viewBox="0 0 202 32" fill="none" xmlns="http://www.w3.org/2000/svg">
<path d="M8.00004 11.9999C6.93918 11.9999 5.92176 12.4213 5.17161 13.1715C4.42147 13.9216 4.00004 14.9391 4.00004 15.9999C4.00004 17.0608 4.42147 18.0782 5.17161 18.8283C5.92176 19.5785 6.93918 19.9999 8.00004 19.9999C9.06091 19.9999 10.0783 19.5785 10.8285 18.8283C11.5786 18.0782 12 17.0608 12 15.9999C12 14.9391 11.5786 13.9216 10.8285 13.1715C10.0783 12.4213 9.06091 11.9999 8.00004 11.9999ZM1.33337 15.9999C1.33351 14.7342 1.69396 13.4946 2.3726 12.4262C3.05124 11.3578 4.02001 10.5046 5.16565 9.96649C6.31129 9.42835 7.58646 9.22747 8.84206 9.38734C10.0977 9.5472 11.2818 10.0612 12.256 10.8693C13.2538 9.88527 14.5987 9.3335 16 9.33325C17.46 9.33325 18.7814 9.91992 19.744 10.8693C21.0153 9.81609 22.6321 9.27204 24.2814 9.34242C25.9307 9.41281 27.4953 10.0926 28.6721 11.2503C29.849 12.4079 30.5546 13.961 30.6521 15.609C30.7497 17.2569 30.2324 18.8824 29.2004 20.1709C28.1683 21.4593 26.6949 22.319 25.0654 22.5835C23.4359 22.8481 21.7662 22.4986 20.3796 21.6028C18.993 20.7071 17.988 19.3286 17.5592 17.7345C17.1305 16.1403 17.3085 14.4437 18.0587 12.9733C17.8087 12.6691 17.4944 12.4241 17.1385 12.2558C16.7826 12.0875 16.3938 12.0001 16 11.9999C15.1734 11.9999 14.4307 12.3773 13.9414 12.9733C14.3984 13.8712 14.646 14.8612 14.6655 15.8686C14.6849 16.876 14.4758 17.8748 14.0537 18.7897C13.6317 19.7047 13.0077 20.5121 12.2287 21.1512C11.4497 21.7904 10.536 22.2446 9.55622 22.4798C8.57644 22.715 7.55608 22.7251 6.57186 22.5092C5.58763 22.2934 4.66514 21.8572 3.87372 21.2335C3.0823 20.6099 2.44255 19.8149 2.00256 18.9084C1.56256 18.002 1.33377 17.0075 1.33337 15.9999ZM24 11.9999C23.4746 11.9992 22.9541 12.1022 22.4685 12.303C21.9829 12.5037 21.5416 12.7984 21.17 13.1699C20.7985 13.5415 20.5039 13.9827 20.3031 14.4684C20.1023 14.954 19.9993 15.4744 20 15.9999C20 16.791 20.2346 17.5644 20.6742 18.2222C21.1137 18.88 21.7384 19.3927 22.4693 19.6954C23.2002 19.9982 24.0045 20.0774 24.7804 19.9231C25.5563 19.7687 26.2691 19.3878 26.8285 18.8283C27.3879 18.2689 27.7688 17.5562 27.9232 16.7803C28.0775 16.0044 27.9983 15.2001 27.6956 14.4692C27.3928 13.7383 26.8801 13.1136 26.2223 12.674C25.5645 12.2345 24.7912 11.9999 24 11.9999Z" fill="white"/>
<path d="M43.3386 12.644V15.852H47.3866V17.508H43.3386V20.78H48.4746V22.5H41.1786V10.932H48.4746V12.644H43.3386ZM55.3498 18.02V22.5H53.2057V18.02L48.9897 10.932H50.8858C51.0724 10.932 51.2191 10.9773 51.3258 11.068C51.4378 11.1587 51.5311 11.2733 51.6058 11.412L53.7178 15.276C53.8404 15.5053 53.9471 15.7213 54.0378 15.924C54.1338 16.1267 54.2191 16.3293 54.2938 16.532C54.3631 16.3293 54.4431 16.1267 54.5338 15.924C54.6244 15.7213 54.7284 15.5053 54.8458 15.276L56.9498 11.412C57.0084 11.2947 57.0964 11.1853 57.2138 11.084C57.3311 10.9827 57.4804 10.932 57.6618 10.932H59.5658L55.3498 18.02ZM62.9168 12.644V15.852H66.9648V17.508H62.9168V20.78H68.0528V22.5H60.7568V10.932H68.0528V12.644H62.9168ZM73.7199 16.748C74.1145 16.748 74.4585 16.7 74.7519 16.604C75.0452 16.5027 75.2879 16.3613 75.4799 16.18C75.6772 15.9933 75.8239 15.7693 75.9199 15.508C76.0159 15.2413 76.0639 14.9453 76.0639 14.62C76.0639 14.3107 76.0159 14.0307 75.9199 13.78C75.8239 13.5293 75.6799 13.316 75.4879 13.14C75.2959 12.964 75.0532 12.8307 74.7599 12.74C74.4665 12.644 74.1199 12.596 73.7199 12.596H72.1119V16.748H73.7199ZM73.7199 10.932C74.4932 10.932 75.1625 11.0227 75.7279 11.204C76.2932 11.3853 76.7599 11.6387 77.1279 11.964C77.4959 12.2893 77.7679 12.6787 77.9439 13.132C78.1252 13.5853 78.2159 14.0813 78.2159 14.62C78.2159 15.18 78.1225 15.6947 77.9359 16.164C77.7492 16.628 77.4692 17.028 77.0959 17.364C76.7225 17.7 76.2532 17.9613 75.6879 18.148C75.1279 18.3347 74.4719 18.428 73.7199 18.428H72.1119V22.5H69.9599V10.932H73.7199ZM83.3621 16.436C83.7675 16.436 84.1195 16.3853 84.4181 16.284C84.7221 16.1827 84.9701 16.044 85.1621 15.868C85.3595 15.6867 85.5061 15.4733 85.6021 15.228C85.6981 14.9827 85.7461 14.7133 85.7461 14.42C85.7461 13.8333 85.5515 13.3827 85.1621 13.068C84.7781 12.7533 84.1888 12.596 83.3941 12.596H82.0181V16.436H83.3621ZM88.8981 22.5H86.9541C86.5861 22.5 86.3195 22.356 86.1541 22.068L83.7221 18.364C83.6315 18.2253 83.5301 18.1267 83.4181 18.068C83.3115 18.0093 83.1515 17.98 82.9381 17.98H82.0181V22.5H79.8661V10.932H83.3941C84.1781 10.932 84.8501 11.0147 85.4101 11.18C85.9755 11.34 86.4368 11.5667 86.7941 11.86C87.1568 12.1533 87.4235 12.5053 87.5941 12.916C87.7648 13.3213 87.8501 13.7693 87.8501 14.26C87.8501 14.6493 87.7915 15.0173 87.6741 15.364C87.5621 15.7107 87.3968 16.0253 87.1781 16.308C86.9648 16.5907 86.6981 16.8387 86.3781 17.052C86.0635 17.2653 85.7035 17.4333 85.2981 17.556C85.4368 17.636 85.5648 17.732 85.6821 17.844C85.7995 17.9507 85.9061 18.0787 86.0021 18.228L88.8981 22.5ZM101.023 16.716C101.023 17.564 100.882 18.3507 100.599 19.076C100.322 19.796 99.9271 20.42 99.4151 20.948C98.9031 21.476 98.2871 21.8893 97.5671 22.188C96.8471 22.4813 96.0471 22.628 95.1671 22.628C94.2925 22.628 93.4951 22.4813 92.7751 22.188C92.0551 21.8893 91.4365 21.476 90.9191 20.948C90.4071 20.42 90.0098 19.796 89.7271 19.076C89.4445 18.3507 89.3031 17.564 89.3031 16.716C89.3031 15.868 89.4445 15.084 89.7271 14.364C90.0098 13.6387 90.4071 13.012 90.9191 12.484C91.4365 11.956 92.0551 11.5453 92.7751 11.252C93.4951 10.9533 94.2925 10.804 95.1671 10.804C95.7538 10.804 96.3058 10.8733 96.8231 11.012C97.3405 11.1453 97.8151 11.3373 98.2471 11.588C98.6791 11.8333 99.0658 12.1347 99.4071 12.492C99.7538 12.844 100.047 13.2387 100.287 13.676C100.527 14.1133 100.708 14.588 100.831 15.1C100.959 15.612 101.023 16.1507 101.023 16.716ZM98.8231 16.716C98.8231 16.0813 98.7378 15.5133 98.5671 15.012C98.3965 14.5053 98.1538 14.076 97.8391 13.724C97.5245 13.372 97.1405 13.1027 96.6871 12.916C96.2391 12.7293 95.7325 12.636 95.1671 12.636C94.6018 12.636 94.0925 12.7293 93.6391 12.916C93.1911 13.1027 92.8071 13.372 92.4871 13.724C92.1725 14.076 91.9298 14.5053 91.7591 15.012C91.5885 15.5133 91.5031 16.0813 91.5031 16.716C91.5031 17.3507 91.5885 17.9213 91.7591 18.428C91.9298 18.9293 92.1725 19.356 92.4871 19.708C92.8071 20.0547 93.1911 20.3213 93.6391 20.508C94.0925 20.6947 94.6018 20.788 95.1671 20.788C95.7325 20.788 96.2391 20.6947 96.6871 20.508C97.1405 20.3213 97.5245 20.0547 97.8391 19.708C98.1538 19.356 98.3965 18.9293 98.5671 18.428C98.7378 17.9213 98.8231 17.3507 98.8231 16.716ZM114.748 19.772C114.865 19.772 114.969 19.8173 115.06 19.908L115.908 20.828C115.438 21.4093 114.86 21.8547 114.172 22.164C113.489 22.4733 112.668 22.628 111.708 22.628C110.849 22.628 110.076 22.4813 109.388 22.188C108.705 21.8947 108.121 21.4867 107.636 20.964C107.15 20.4413 106.777 19.8173 106.516 19.092C106.26 18.3667 106.132 17.5747 106.132 16.716C106.132 15.8467 106.27 15.052 106.548 14.332C106.825 13.6067 107.214 12.9827 107.716 12.46C108.222 11.9373 108.825 11.532 109.524 11.244C110.222 10.9507 110.996 10.804 111.844 10.804C112.686 10.804 113.433 10.9427 114.084 11.22C114.74 11.4973 115.297 11.86 115.756 12.308L115.036 13.308C114.993 13.372 114.937 13.428 114.868 13.476C114.804 13.524 114.713 13.548 114.596 13.548C114.516 13.548 114.433 13.5267 114.348 13.484C114.262 13.436 114.169 13.38 114.068 13.316C113.966 13.2467 113.849 13.172 113.716 13.092C113.582 13.012 113.428 12.94 113.252 12.876C113.076 12.8067 112.87 12.7507 112.636 12.708C112.406 12.66 112.14 12.636 111.836 12.636C111.318 12.636 110.844 12.7293 110.412 12.916C109.985 13.0973 109.617 13.364 109.308 13.716C108.998 14.0627 108.758 14.4893 108.588 14.996C108.417 15.4973 108.332 16.0707 108.332 16.716C108.332 17.3667 108.422 17.9453 108.604 18.452C108.79 18.9587 109.041 19.3853 109.356 19.732C109.67 20.0787 110.041 20.3453 110.468 20.532C110.894 20.7133 111.353 20.804 111.844 20.804C112.137 20.804 112.401 20.788 112.636 20.756C112.876 20.724 113.094 20.6733 113.292 20.604C113.494 20.5347 113.684 20.4467 113.86 20.34C114.041 20.228 114.22 20.092 114.396 19.932C114.449 19.884 114.505 19.8467 114.564 19.82C114.622 19.788 114.684 19.772 114.748 19.772ZM128.164 16.716C128.164 17.564 128.022 18.3507 127.74 19.076C127.462 19.796 127.068 20.42 126.556 20.948C126.044 21.476 125.428 21.8893 124.708 22.188C123.988 22.4813 123.188 22.628 122.308 22.628C121.433 22.628 120.636 22.4813 119.916 22.188C119.196 21.8893 118.577 21.476 118.06 20.948C117.548 20.42 117.15 19.796 116.868 19.076C116.585 18.3507 116.444 17.564 116.444 16.716C116.444 15.868 116.585 15.084 116.868 14.364C117.15 13.6387 117.548 13.012 118.06 12.484C118.577 11.956 119.196 11.5453 119.916 11.252C120.636 10.9533 121.433 10.804 122.308 10.804C122.894 10.804 123.446 10.8733 123.964 11.012C124.481 11.1453 124.956 11.3373 125.388 11.588C125.82 11.8333 126.206 12.1347 126.548 12.492C126.894 12.844 127.188 13.2387 127.428 13.676C127.668 14.1133 127.849 14.588 127.972 15.1C128.1 15.612 128.164 16.1507 128.164 16.716ZM125.964 16.716C125.964 16.0813 125.878 15.5133 125.708 15.012C125.537 14.5053 125.294 14.076 124.98 13.724C124.665 13.372 124.281 13.1027 123.828 12.916C123.38 12.7293 122.873 12.636 122.308 12.636C121.742 12.636 121.233 12.7293 120.78 12.916C120.332 13.1027 119.948 13.372 119.628 13.724C119.313 14.076 119.07 14.5053 118.9 15.012C118.729 15.5133 118.644 16.0813 118.644 16.716C118.644 17.3507 118.729 17.9213 118.9 18.428C119.07 18.9293 119.313 19.356 119.628 19.708C119.948 20.0547 120.332 20.3213 120.78 20.508C121.233 20.6947 121.742 20.788 122.308 20.788C122.873 20.788 123.38 20.6947 123.828 20.508C124.281 20.3213 124.665 20.0547 124.98 19.708C125.294 19.356 125.537 18.9293 125.708 18.428C125.878 17.9213 125.964 17.3507 125.964 16.716ZM142.598 10.932V22.5H140.702V15.028C140.702 14.7293 140.718 14.4067 140.75 14.06L137.254 20.628C137.088 20.9427 136.835 21.1 136.494 21.1H136.19C135.848 21.1 135.595 20.9427 135.43 20.628L131.894 14.036C131.91 14.212 131.923 14.3853 131.934 14.556C131.944 14.7267 131.95 14.884 131.95 15.028V22.5H130.054V10.932H131.678C131.774 10.932 131.856 10.9347 131.926 10.94C131.995 10.9453 132.056 10.9587 132.11 10.98C132.168 11.0013 132.219 11.036 132.262 11.084C132.31 11.132 132.355 11.196 132.398 11.276L135.862 17.7C135.952 17.8707 136.035 18.0467 136.11 18.228C136.19 18.4093 136.267 18.596 136.342 18.788C136.416 18.5907 136.494 18.4013 136.574 18.22C136.654 18.0333 136.739 17.8547 136.83 17.684L140.246 11.276C140.288 11.196 140.334 11.132 140.382 11.084C140.43 11.036 140.48 11.0013 140.534 10.98C140.592 10.9587 140.656 10.9453 140.726 10.94C140.795 10.9347 140.878 10.932 140.974 10.932H142.598ZM148.939 16.748C149.333 16.748 149.677 16.7 149.971 16.604C150.264 16.5027 150.507 16.3613 150.699 16.18C150.896 15.9933 151.043 15.7693 151.139 15.508C151.235 15.2413 151.283 14.9453 151.283 14.62C151.283 14.3107 151.235 14.0307 151.139 13.78C151.043 13.5293 150.899 13.316 150.707 13.14C150.515 12.964 150.272 12.8307 149.979 12.74C149.685 12.644 149.339 12.596 148.939 12.596H147.331V16.748H148.939ZM148.939 10.932C149.712 10.932 150.381 11.0227 150.947 11.204C151.512 11.3853 151.979 11.6387 152.347 11.964C152.715 12.2893 152.987 12.6787 153.163 13.132C153.344 13.5853 153.435 14.0813 153.435 14.62C153.435 15.18 153.341 15.6947 153.155 16.164C152.968 16.628 152.688 17.028 152.315 17.364C151.941 17.7 151.472 17.9613 150.907 18.148C150.347 18.3347 149.691 18.428 148.939 18.428H147.331V22.5H145.179V10.932H148.939ZM160.384 18.132L158.976 14.284C158.907 14.1133 158.835 13.9107 158.76 13.676C158.686 13.4413 158.611 13.188 158.536 12.916C158.467 13.188 158.395 13.444 158.32 13.684C158.246 13.9187 158.174 14.124 158.104 14.3L156.704 18.132H160.384ZM164.184 22.5H162.52C162.334 22.5 162.182 22.4547 162.064 22.364C161.947 22.268 161.859 22.1507 161.8 22.012L160.936 19.652H156.144L155.28 22.012C155.238 22.1347 155.155 22.2467 155.032 22.348C154.91 22.4493 154.758 22.5 154.576 22.5H152.896L157.448 10.932H159.64L164.184 22.5ZM175.134 10.932V22.5H174.03C173.859 22.5 173.715 22.4733 173.598 22.42C173.486 22.3613 173.376 22.2653 173.27 22.132L167.23 14.42C167.262 14.772 167.278 15.0973 167.278 15.396V22.5H165.382V10.932H166.51C166.6 10.932 166.678 10.9373 166.742 10.948C166.811 10.9533 166.87 10.9693 166.918 10.996C166.971 11.0173 167.022 11.052 167.07 11.1C167.118 11.1427 167.171 11.2013 167.23 11.276L173.294 19.02C173.278 18.8333 173.264 18.6493 173.254 18.468C173.243 18.2867 173.238 18.1187 173.238 17.964V10.932H175.134ZM182.678 18.02V22.5H180.534V18.02L176.318 10.932H178.214C178.401 10.932 178.547 10.9773 178.654 11.068C178.766 11.1587 178.859 11.2733 178.934 11.412L181.046 15.276C181.169 15.5053 181.275 15.7213 181.366 15.924C181.462 16.1267 181.547 16.3293 181.622 16.532C181.691 16.3293 181.771 16.1267 181.862 15.924C181.953 15.7213 182.057 15.5053 182.174 15.276L184.278 11.412C184.337 11.2947 184.425 11.1853 184.542 11.084C184.659 10.9827 184.809 10.932 184.99 10.932H186.894L182.678 18.02Z" fill="white"/>
</svg>
